<svg xmlns="http://www.w3.org/2000/svg" width="137" height="122" viewBox="0 0 137 122" version="1.1"><path d="M 51 5.686 C 39.821 7.510, 34.508 18.448, 39.716 28.916 C 40.925 31.344, 41.681 33.707, 41.398 34.166 C 41.114 34.625, 33.799 35, 25.141 35 C 14.231 35, 9.032 35.368, 8.200 36.200 C 6.637 37.763, 6.499 69.572, 8.050 70.531 C 8.628 70.888, 11.215 71.482, 13.800 71.850 L 18.500 72.520 19 90.090 C 19.491 107.360, 19.547 107.722, 22.246 111.258 C 25.927 116.081, 27.240 116.198, 73.500 115.815 C 113.827 115.481, 113.859 115.477, 117.102 110.602 C 118.116 109.078, 118.637 103.552, 119 90.500 L 119.500 72.500 124.245 71.955 C 126.855 71.655, 129.555 70.845, 130.245 70.155 C 131.147 69.253, 131.500 64.400, 131.500 52.914 C 131.500 39.792, 131.231 36.758, 130 35.979 C 129.175 35.457, 121.664 35.024, 113.309 35.015 C 103.822 35.006, 97.875 34.607, 97.471 33.953 C 97.115 33.377, 97.764 30.907, 98.912 28.464 C 102.606 20.605, 100.834 12.998, 94.270 8.538 C 91.202 6.453, 89.355 6, 83.921 6 C 77.715 6, 77.084 6.216, 73.703 9.500 C 70.265 12.839, 67 14.082, 67 12.051 C 67 11.529, 65.537 10.010, 63.750 8.675 C 60.385 6.163, 55.336 4.979, 51 5.686 M 48.080 16.140 C 44.035 19.909, 46.920 27.988, 53.500 31.316 C 57.633 33.406, 61.254 34.079, 62.900 33.062 C 64.824 31.873, 63.869 24.426, 61.044 18.591 C 58.924 14.212, 58.626 14, 54.599 14 C 51.667 14, 49.675 14.654, 48.080 16.140 M 78.797 15.750 C 76.500 18.406, 75 23.743, 75 29.261 L 75 34.223 78.750 33.536 C 89.683 31.533, 96.417 20.899, 89.917 15.902 C 86.810 13.514, 80.801 13.432, 78.797 15.750 M 15.667 43.667 C 15.300 44.033, 15 48.533, 15 53.667 L 15 63 69 63 L 123 63 123 53 L 123 43 69.667 43 C 40.333 43, 16.033 43.300, 15.667 43.667 M 28.518 72.971 C 28.188 73.505, 27.892 81.017, 27.860 89.663 C 27.793 108.202, 27.825 108.261, 37.498 107.791 L 43.500 107.500 43.773 89.750 L 44.046 72 36.582 72 C 32.477 72, 28.848 72.437, 28.518 72.971 M 52.613 73.567 C 52.276 74.445, 52 82.274, 52 90.965 C 52 106.507, 52.037 106.777, 54.250 107.370 C 55.487 107.701, 67.813 107.979, 81.639 107.986 C 104.110 107.999, 107.006 107.814, 108.923 106.250 C 110.976 104.574, 111.055 103.823, 110.783 88.500 L 110.500 72.500 81.863 72.235 C 56.402 71.999, 53.158 72.147, 52.613 73.567" stroke="none" fill="#49a684" fill-rule="evenodd"/></svg>