<svg xmlns="http://www.w3.org/2000/svg" width="119" height="117" viewBox="0 0 119 117" version="1.1"><path d="M 37.411 4.891 C 25.635 12.072, 26.997 28.212, 39.833 33.575 C 42.328 34.617, 47.713 34.996, 59.872 34.985 C 79.124 34.968, 82.986 34.062, 87.500 28.507 C 90.130 25.270, 90.500 24.032, 90.500 18.473 C 90.500 12.794, 90.186 11.801, 87.500 8.976 C 83.334 4.595, 79.864 3, 74.500 3 C 69.771 3, 64.115 5.222, 62.700 7.635 C 61.787 9.193, 58 9.503, 58 8.020 C 58 7.482, 56.218 6.132, 54.040 5.020 C 48.960 2.429, 41.543 2.371, 37.411 4.891 M 40.611 12.250 C 38.132 14.480, 37.662 16.015, 37.885 21.168 C 38.067 25.392, 43.451 28.178, 50.701 27.801 C 56.279 27.511, 56.513 27.389, 56.832 24.592 C 57.374 19.841, 56.026 14.935, 53.479 12.388 C 50.264 9.173, 44.104 9.107, 40.611 12.250 M 66.903 12.084 C 64.814 13.895, 64.500 15.039, 64.500 20.834 L 64.500 27.500 70.597 27.794 C 76.165 28.062, 76.969 27.832, 79.847 25.143 C 83.945 21.315, 84.188 16.279, 80.455 12.545 C 77.137 9.228, 70.459 9, 66.903 12.084 M 8 42.146 C 5.793 43.981, 5.500 45.003, 5.500 50.862 L 5.500 57.500 59.710 57.759 L 113.920 58.017 115.057 55.894 C 116.747 52.736, 115.305 45.214, 112.465 42.374 L 110.091 40 60.295 40.033 C 11.362 40.066, 10.457 40.103, 8 42.146 M 9.941 63.390 C 9.698 63.631, 9.725 73.977, 10 86.381 C 10.441 106.273, 10.710 109.144, 12.283 110.717 C 13.763 112.197, 16.203 112.557, 26.649 112.834 C 33.680 113.021, 39.647 112.753, 40.174 112.226 C 40.710 111.690, 41.116 101, 41.116 87.392 L 41.117 63.500 25.750 63.226 C 17.298 63.075, 10.184 63.148, 9.941 63.390 M 47.233 87.750 L 47.500 112.500 76.177 112.765 L 104.853 113.030 107.677 110.604 L 110.500 108.177 110.803 85.588 L 111.106 63 79.036 63 L 46.965 63 47.233 87.750" stroke="none" fill="#096043" fill-rule="evenodd"/></svg>