<svg xmlns="http://www.w3.org/2000/svg" width="133" height="140" viewBox="0 0 133 140" version="1.1"><path d="M 61.973 4.674 C 59.555 6.312, 44.500 19.476, 40.466 23.481 C 39.347 24.591, 34.397 29.094, 29.466 33.487 C 21.216 40.837, 13.008 48.388, 5.848 55.216 C 4.282 56.710, 3 58.537, 3 59.275 C 3 61.689, 5.441 63.869, 8.500 64.188 L 11.500 64.500 11.764 96.865 C 12.011 127.144, 12.154 129.408, 13.983 131.977 C 16.830 135.975, 22.403 137.141, 37 136.796 L 49.500 136.500 50.050 117.500 C 50.352 107.050, 51.094 97.375, 51.699 96 C 52.304 94.625, 54.194 92.179, 55.898 90.564 C 58.450 88.147, 60.062 87.551, 65.016 87.192 C 70.207 86.817, 71.561 87.106, 74.861 89.289 C 81.364 93.593, 82.272 96.887, 82.076 115.471 C 81.980 124.515, 82.355 132.803, 82.928 134.310 L 83.950 137 96.609 137 C 111.628 137, 116.533 135.813, 119.132 131.551 C 120.843 128.746, 120.993 125.942, 120.996 96.719 C 120.999 72.168, 121.284 64.850, 122.250 64.552 C 122.938 64.340, 124.688 63.908, 126.140 63.592 C 129.330 62.897, 130.325 60.755, 128.858 57.738 C 128.259 56.507, 123.771 51.953, 118.885 47.617 L 110 39.735 110 28.522 C 110 15.430, 109.347 14.299, 102 14.649 C 99.525 14.768, 96.713 14.895, 95.750 14.932 C 94.436 14.983, 94 15.856, 94 18.441 C 94 21.842, 92.374 24.079, 91.138 22.378 C 89.490 20.110, 72.853 5.804, 70.339 4.493 C 66.678 2.583, 65.007 2.620, 61.973 4.674" stroke="none" fill="#096446" fill-rule="evenodd"/></svg>