<svg xmlns="http://www.w3.org/2000/svg" width="133" height="139" viewBox="0 0 133 139" version="1.1"><path d="M 64 4.821 C 61.060 5.244, 56.593 8.440, 49 15.552 C 45.975 18.385, 40.125 23.614, 36 27.172 C 31.875 30.730, 26.700 35.295, 24.500 37.316 C 22.300 39.338, 17.516 43.581, 13.869 46.746 C 10.222 49.911, 6.510 53.694, 5.619 55.154 C 1.972 61.134, 4.757 67.712, 11.835 69.832 L 15.806 71.022 16.191 97.261 C 16.625 126.857, 16.860 127.863, 24.582 133.217 C 28.336 135.820, 29.033 135.935, 41.250 135.967 L 54 136 54 117.557 C 54 95.345, 53.613 96, 66.723 96 C 79.181 96, 79 95.676, 79 118 L 79 136 91.040 136 C 105.160 136, 109.404 134.488, 113.500 127.999 L 116 124.040 116 98.079 C 116 69.946, 115.716 71.322, 121.905 69.495 C 126.220 68.221, 129.317 62.834, 128.392 58.212 C 127.795 55.227, 124.958 52.156, 112.218 40.710 L 108 36.919 108 28.495 C 108 21.189, 107.743 19.933, 106.066 19.035 C 102.511 17.133, 97.094 17.796, 94.651 20.432 C 93.411 21.769, 91.905 22.557, 91.304 22.182 C 90.703 21.807, 86.725 18.350, 82.463 14.500 C 71.589 4.675, 70.174 3.934, 64 4.821 M 55.840 21.250 C 40.669 34.379, 21.957 51.114, 17.032 55.957 L 12.500 60.413 17.815 61.105 C 20.739 61.486, 23.439 62.105, 23.815 62.480 C 24.192 62.856, 24.725 76.289, 25 92.331 C 25.355 113.056, 25.863 122.134, 26.753 123.689 C 28.140 126.114, 33.691 127.380, 40.500 126.826 L 44.500 126.500 45.076 111.839 C 45.546 99.906, 45.998 96.650, 47.510 94.339 C 51.271 88.589, 51.467 88.522, 65.510 88.176 C 78.600 87.853, 78.687 87.866, 81.921 90.587 C 86.532 94.467, 87.150 96.821, 87.515 111.870 C 87.694 119.223, 88.290 125.690, 88.841 126.241 C 89.403 126.803, 92.793 127.055, 96.561 126.815 C 102.549 126.434, 103.535 126.067, 105.635 123.444 C 107.981 120.511, 107.990 120.394, 108.010 92.500 C 108.021 77.100, 108.414 63.896, 108.882 63.157 C 109.350 62.418, 112.152 61.518, 115.109 61.157 L 120.484 60.500 116.492 56.484 C 114.296 54.275, 109.583 50, 106.017 46.984 C 102.452 43.968, 98.627 40.591, 97.517 39.480 C 95.415 37.375, 81.028 24.600, 72.481 17.250 C 69.763 14.912, 67.052 13, 66.456 13 C 65.860 13, 61.083 16.712, 55.840 21.250" stroke="none" fill="#4aa685" fill-rule="evenodd"/></svg>