<svg xmlns="http://www.w3.org/2000/svg" width="189" height="248" viewBox="0 0 189 248" version="1.1"><path d="M 55.709 13.103 C 53.943 14.131, 43.286 29.637, 41.711 33.472 C 40.409 36.639, 39.095 36.967, 27.500 37.016 C 12.067 37.083, 10 39.058, 10 53.746 C 10 64.664, 11.851 68.125, 18.948 70.483 L 23.815 72.099 24.433 78.300 C 25.048 84.475, 25.626 89.137, 28.486 111 C 29.314 117.325, 30.460 126.325, 31.034 131 C 31.608 135.675, 32.713 144.450, 33.489 150.500 C 34.266 156.550, 35.387 165.550, 35.981 170.500 C 36.575 175.450, 37.528 182.875, 38.098 187 C 39.175 194.787, 40.494 205.474, 41.862 217.500 C 42.825 225.968, 44.842 230.121, 49.344 232.903 C 52.644 234.943, 53.852 235, 93.718 235 L 134.700 235 138.722 232.086 C 142.341 229.465, 142.907 228.450, 144.372 221.964 C 145.267 217.999, 146 213.018, 146 210.896 C 146 207.129, 146.423 203.842, 149.501 183.685 C 150.326 178.286, 151 172.332, 151 170.453 C 151 167.008, 151.981 159.726, 154.583 143.857 C 155.362 139.103, 156 133.305, 156 130.972 C 156 128.639, 156.436 123.979, 156.969 120.615 C 159.540 104.388, 160.310 98.854, 161.087 91 C 162.604 75.683, 163.255 71.838, 164.385 71.531 C 164.998 71.365, 167.413 70.709, 169.750 70.074 C 175.760 68.442, 178 63.848, 178 53.154 C 178 39.130, 175.779 37.082, 160.500 37.016 C 148.905 36.967, 147.591 36.639, 146.289 33.472 C 144.591 29.338, 133.963 14.050, 132.091 13.049 C 129.417 11.618, 58.175 11.668, 55.709 13.103 M 20 54 L 20 61 94 61 L 168 61 168 54 L 168 47 94 47 L 20 47 20 54 M 34.389 72.429 C 33.904 73.693, 34.310 78.230, 36.857 100 L 37.500 105.500 93.417 105.500 C 148.589 105.500, 149.337 105.473, 149.569 103.500 C 149.697 102.400, 150.324 97.450, 150.962 92.500 C 151.599 87.550, 152.371 80.688, 152.677 77.250 L 153.233 71 94.085 71 C 43.736 71, 34.856 71.213, 34.389 72.429 M 83.165 127.619 C 78.628 129.600, 70.479 137.934, 68.473 142.645 C 67.475 144.987, 66.820 149.308, 66.804 153.654 C 66.782 159.621, 67.267 161.778, 69.728 166.654 C 79.801 186.615, 108.537 186.579, 118.323 166.593 C 120.524 162.097, 121.124 159.439, 121.176 153.949 C 121.212 150.125, 120.662 145.535, 119.954 143.748 C 117.856 138.455, 112.168 132.137, 106.655 128.976 C 102.150 126.392, 100.554 126.028, 94 126.091 C 89.788 126.131, 85.038 126.802, 83.165 127.619 M 49.556 197.824 C 49.234 198.839, 49.652 203.231, 50.485 207.584 C 51.318 211.938, 52 217.097, 52 219.050 C 52 221.002, 52.540 223.140, 53.200 223.800 C 54.093 224.693, 64.472 225, 93.725 225 L 133.050 225 134.143 222.250 C 135.092 219.863, 136.941 206.497, 137.360 199 L 137.500 196.500 93.821 196.240 C 52.118 195.991, 50.115 196.063, 49.556 197.824" stroke="none" fill="#edf1f0" fill-rule="evenodd"/></svg>