<svg xmlns="http://www.w3.org/2000/svg" width="133" height="94" viewBox="0 0 133 94" version="1.1"><path d="M 8.110 4.396 C 3.172 7.132, 3.073 7.965, 3.035 47.203 C 3.011 72.044, 3.359 84.693, 4.110 86.343 C 4.721 87.683, 6.317 89.279, 7.657 89.890 C 11.239 91.521, 121.935 91.442, 125.528 89.805 C 130.833 87.388, 131 86.102, 131 47.672 C 131 9.115, 130.675 6.540, 125.519 4.191 C 121.533 2.374, 11.410 2.566, 8.110 4.396 M 17.394 56.416 C 17.095 57.194, 16.997 59.107, 17.175 60.666 L 17.500 63.500 34.175 63.774 C 49.924 64.032, 50.884 63.940, 51.465 62.109 C 51.804 61.043, 51.789 59.007, 51.432 57.585 L 50.783 55 34.360 55 C 21.120 55, 17.832 55.274, 17.394 56.416 M 101.501 59.801 C 95.529 60.059, 94.099 60.490, 91.751 62.738 C 87.849 66.477, 87.940 71.786, 91.974 75.820 C 94.831 78.677, 95.296 78.793, 103.724 78.748 C 111.378 78.707, 112.916 78.394, 115.750 76.300 C 118.579 74.209, 119 73.315, 119 69.401 C 119 65.876, 118.454 64.398, 116.472 62.562 C 113.535 59.840, 111.087 59.389, 101.501 59.801 M 17.390 72.427 C 17.088 73.212, 16.990 74.900, 17.171 76.177 L 17.500 78.500 43.264 78.767 L 69.027 79.034 70.161 76.547 C 71.030 74.638, 70.999 73.703, 70.025 72.530 C 68.190 70.319, 18.236 70.222, 17.390 72.427" stroke="none" fill="#0e6548" fill-rule="evenodd"/></svg>