<svg xmlns="http://www.w3.org/2000/svg" width="109" height="86" viewBox="0 0 109 86" version="1.1"><path d="M 9.090 4.874 C 7.765 5.244, 5.740 6.806, 4.590 8.345 C 2.598 11.012, 2.485 12.534, 2.187 40.821 C 1.860 71.911, 2.286 76.138, 6.095 79.587 C 8.097 81.400, 10.497 81.515, 51.854 81.788 C 75.859 81.946, 97.260 81.709, 99.412 81.262 C 101.913 80.741, 104.077 79.439, 105.412 77.652 C 107.394 75, 107.516 73.425, 107.824 46.679 C 108.188 15.044, 107.859 11.111, 104.523 7.231 L 102.174 4.500 56.837 4.350 C 31.902 4.268, 10.416 4.503, 9.090 4.874 M 10.200 12.200 C 9.321 13.079, 9 21.226, 9 42.618 C 9 58.688, 9.273 72.548, 9.607 73.418 C 10.148 74.828, 15.083 75, 55 75 C 95.653 75, 99.844 74.848, 100.418 73.354 C 101.539 70.432, 100.985 13.687, 99.822 12.285 C 98.324 10.480, 12.001 10.399, 10.200 12.200 M 18.250 51.692 C 17.563 51.953, 17 52.981, 17 53.976 C 17 56.476, 17.985 56.684, 30.500 56.824 C 42.193 56.956, 44.412 56.382, 43.835 53.380 C 43.507 51.674, 42.363 51.487, 31.487 51.359 C 24.894 51.281, 18.938 51.431, 18.250 51.692 M 68.704 53.453 C 67.717 54.187, 66.649 56.389, 66.331 58.347 C 65.838 61.385, 66.200 62.354, 68.800 64.954 C 72.053 68.207, 73.924 68.646, 77.156 66.916 C 78.634 66.126, 79.960 66.155, 82.061 67.025 C 84.497 68.034, 85.443 67.925, 88.195 66.318 C 92.708 63.682, 94.050 58.883, 91.302 55.201 C 89.384 52.630, 88.835 52.491, 79.894 52.310 C 73.370 52.178, 69.951 52.527, 68.704 53.453 M 72.380 58.452 C 71.683 60.267, 72.695 62, 74.452 62 C 76.322 62, 77.338 58.831, 75.784 57.845 C 73.909 56.656, 73.008 56.816, 72.380 58.452 M 83.250 57.662 C 81.513 58.363, 81.684 60.941, 83.513 61.643 C 85.801 62.521, 88.314 60.084, 86.890 58.367 C 85.695 56.928, 85.273 56.846, 83.250 57.662 M 17.184 64.750 L 17.500 67.500 36 67.500 L 54.500 67.500 54.816 64.750 L 55.133 62 36 62 L 16.867 62 17.184 64.750" stroke="none" fill="#4ea286" fill-rule="evenodd"/></svg>