<svg xmlns="http://www.w3.org/2000/svg" width="137" height="136" viewBox="0 0 137 136" version="1.1"><path d="M 49.485 4.718 C 27.076 8.503, 9.505 26.061, 5.724 48.448 C 2.408 68.082, 9.985 85.848, 27.796 100.200 C 32.496 103.987, 44.368 108.358, 52.842 109.422 C 58.100 110.082, 69.093 108.624, 75.656 106.395 C 84.461 103.406, 97 94.049, 97 90.468 C 97 87.818, 95.040 85, 93.196 85 C 92.243 85, 89.241 86.837, 86.524 89.082 C 83.807 91.327, 80.215 93.899, 78.542 94.797 C 54.217 107.858, 24.796 95.577, 16.077 68.721 C 11.476 54.551, 16.131 37.122, 27.453 26.131 C 33.869 19.902, 39.830 16.660, 48.930 14.448 C 54.930 12.990, 57.199 12.876, 62.327 13.775 C 72.528 15.564, 74.266 16.152, 80 19.756 C 89.146 25.506, 93.540 30.977, 99.072 43.500 C 99.801 45.150, 100.646 51.675, 100.949 58 L 101.500 69.500 104.607 69.803 C 107.255 70.061, 107.901 69.654, 108.979 67.050 C 109.676 65.369, 110.230 60.470, 110.211 56.164 C 110.133 38.274, 101.541 22.738, 86.163 12.680 C 74.868 5.293, 62.272 2.558, 49.485 4.718 M 97.241 96.986 C 96.558 98.079, 96 99.561, 96 100.280 C 96 102.162, 125.339 131, 127.254 131 C 129.318 131, 132 128.318, 132 126.254 C 132 123.812, 102.992 95, 100.534 95 C 99.405 95, 97.923 95.894, 97.241 96.986" stroke="none" fill="#4ea787" fill-rule="evenodd"/></svg>