<svg xmlns="http://www.w3.org/2000/svg" width="134" height="135" viewBox="0 0 134 135" version="1.1"><path d="M 47.500 5.329 C 37.625 7.625, 26.338 13.662, 19.917 20.083 C 10.605 29.395, 4 45.543, 4 59 C 4 75.842, 13.030 93.395, 26.759 103.243 C 43.036 114.919, 67.546 116.577, 84.280 107.133 C 86.360 105.960, 88.616 105, 89.295 105 C 89.974 105, 96.126 110.609, 102.964 117.464 C 116.007 130.538, 118.743 132.177, 123.936 130.026 C 128.221 128.252, 130.289 122.277, 128.061 118.113 C 127.544 117.148, 122.246 111.440, 116.287 105.429 C 101.837 90.854, 102.391 91.677, 104.752 88.285 C 113.376 75.895, 115.765 56.115, 110.523 40.500 C 105.634 25.934, 92.355 12.839, 76.500 6.948 C 68.798 4.087, 55.933 3.368, 47.500 5.329 M 52.500 22.972 C 41.581 24.386, 30.749 32.692, 25.572 43.618 C 23.123 48.787, 22.788 50.652, 22.809 59 C 22.828 66.628, 23.270 69.477, 25.054 73.455 C 28.080 80.207, 36.230 88.564, 42.962 91.821 C 47.889 94.205, 49.658 94.500, 59 94.500 C 68.078 94.500, 70.177 94.171, 74.500 92.072 C 79.804 89.496, 88.766 81.174, 90.733 77 C 94.258 69.517, 95 66.271, 95 58.336 C 95 51.129, 94.580 49.019, 92.087 43.685 C 88.686 36.412, 80.649 28.265, 73.955 25.305 C 68.810 23.031, 59.699 22.040, 52.500 22.972" stroke="none" fill="#106347" fill-rule="evenodd"/></svg>